<svg width="24" height="24" viewBox="0 0 24 24" fill="none" xmlns="http://www.w3.org/2000/svg">
<g clip-path="url(#clip0)">
<path fill-rule="evenodd" clip-rule="evenodd" d="M8.25703 12.8373L8.59906 12.7193L8.3011 12.5141C6.50274 11.2753 5.32204 9.20299 5.32204 6.8604C5.32204 3.07782 8.39986 0 12.1824 0C15.965 0 19.0429 3.07782 19.0429 6.8604C19.0429 10.643 15.965 13.7208 12.1824 13.7208C6.73006 13.7208 2.23862 17.9132 1.76228 23.2437C1.72489 23.6621 1.38533 24 0.96526 24C0.535557 24 0.186489 23.6478 0.220281 23.2194C0.444502 20.3771 1.65901 17.7356 3.69715 15.6974C5.00453 14.3901 6.56011 13.4227 8.25703 12.8373ZM22.0878 15.5684V16.7513H24.1824V24H14.6494V16.7513H16.7426V15.5684C16.7426 14.1245 17.9387 12.9442 19.4152 12.9442C20.8916 12.9442 22.0878 14.1245 22.0878 15.5684ZM18.2807 16.7513H20.5497V15.5684C20.5497 14.9606 20.0318 14.4822 19.4152 14.4822C18.7984 14.4822 18.2807 14.9605 18.2807 15.5684V16.7513ZM16.1875 22.4619H22.6444V18.2893H16.1875V22.4619ZM6.86011 6.8604C6.86011 9.79528 9.24757 12.1827 12.1824 12.1827C15.1173 12.1827 17.5048 9.79528 17.5048 6.8604C17.5048 3.92553 15.1173 1.53807 12.1824 1.53807C9.24757 1.53807 6.86011 3.92553 6.86011 6.8604Z" fill="url(#paint0_linear)"/>
</g>
<defs>
<linearGradient id="paint0_linear" x1="12.2002" y1="0" x2="12.2002" y2="24" gradientUnits="userSpaceOnUse">
<stop stop-color="#193160"/>
<stop offset="1" stop-color="#0B1528"/>
</linearGradient>
<clipPath id="clip0">
<rect width="24" height="24" fill="white"/>
</clipPath>
</defs>
</svg>
