<svg width="24" height="24" viewBox="0 0 24 24" fill="none" xmlns="http://www.w3.org/2000/svg">
<g clip-path="url(#clip0)">
<path fill-rule="evenodd" clip-rule="evenodd" d="M12.0002 -6.10352e-05C5.3681 -6.10352e-05 0.000244141 5.36691 0.000244141 11.9999V23.2309C0.000244141 23.6556 0.344538 23.9999 0.769279 23.9999H12.0002C18.6323 23.9999 24.0002 18.633 24.0002 11.9999C24.0002 5.3678 18.6333 -6.10352e-05 12.0002 -6.10352e-05ZM1.53831 11.9999C1.53831 6.21801 6.21754 1.53801 12.0002 1.53801C17.7822 1.53801 22.4622 6.21723 22.4622 11.9999C22.4622 17.7819 17.7829 22.4619 12.0002 22.4619H1.53831V11.9999ZM8.75783 8.70241C8.75783 7.93866 9.67027 6.66237 11.8429 6.66237C13.9073 6.66237 15.1935 7.79577 15.1935 9.2167C15.1935 9.94007 14.8662 10.5729 14.4715 11.0758C14.0773 11.578 13.6275 11.9359 13.4061 12.1081L13.4058 12.1084C12.9338 12.4774 12.6742 12.8057 12.5402 13.17C12.4089 13.527 12.4066 13.9002 12.4066 14.3258C12.4066 14.4522 12.3741 14.5647 12.2816 14.6491C12.1856 14.7367 11.9937 14.8232 11.6107 14.8232C11.2842 14.8232 11.1281 14.7616 11.0393 14.656C10.9417 14.54 10.8811 14.3222 10.8811 13.8945C10.8811 13.2097 11.032 12.7134 11.2342 12.3417C11.4368 11.9692 11.6961 11.7124 11.9285 11.512C12.0242 11.4309 12.1308 11.349 12.246 11.2606C12.2906 11.2264 12.3365 11.1911 12.3835 11.1546C12.5489 11.026 12.7235 10.8847 12.882 10.7273C13.1984 10.4131 13.4688 10.0165 13.4688 9.49866C13.4688 9.05564 13.2723 8.71814 12.9547 8.49828C12.6448 8.28378 12.2312 8.18793 11.7931 8.18793C11.3468 8.18793 11.0205 8.27233 10.7699 8.41012C10.5192 8.54805 10.3593 8.73139 10.2354 8.90182C10.1974 8.95401 10.1595 9.00982 10.1248 9.06096L10.1248 9.061L10.1248 9.06102L10.1248 9.06104L10.1245 9.06149C10.1056 9.0893 10.0877 9.11572 10.0712 9.13941C10.0207 9.21194 9.97545 9.27148 9.92756 9.32C9.8399 9.40882 9.74024 9.46521 9.57036 9.46521C9.38349 9.46521 9.17637 9.40207 9.01948 9.27555C8.86761 9.15306 8.75783 8.96804 8.75783 8.70241ZM10.5495 17.4279C10.5495 16.829 11.0348 16.3334 11.6274 16.3334C12.2232 16.3334 12.722 16.8322 12.722 17.4279C12.722 18.0102 12.2367 18.5225 11.6274 18.5225C11.0212 18.5225 10.5495 18.0134 10.5495 17.4279Z" fill="url(#paint0_linear)"/>
</g>
<defs>
<linearGradient id="paint0_linear" x1="12.0002" y1="-6.10352e-05" x2="12.0002" y2="23.9999" gradientUnits="userSpaceOnUse">
<stop stop-color="#193160"/>
<stop offset="1" stop-color="#0B1528"/>
</linearGradient>
<clipPath id="clip0">
<rect width="24" height="24" fill="white"/>
</clipPath>
</defs>
</svg>
