<svg width="24" height="24" viewBox="0 0 24 24" fill="none" xmlns="http://www.w3.org/2000/svg">
<g clip-path="url(#clip0)">
<path fill-rule="evenodd" clip-rule="evenodd" d="M13.8317 0.493056C12.7021 -0.164433 11.2978 -0.164433 10.1682 0.493056L10.054 0.293157L10.1682 0.493059L3.03511 4.64488C1.90338 5.3036 1.19995 6.53262 1.19995 7.85135V16.1485C1.19995 17.4672 1.90339 18.6963 3.03511 19.355L10.1682 23.5068L10.047 23.719L10.1682 23.5068C11.2976 24.1642 12.7019 24.1644 13.8317 23.5068L20.9648 19.355C22.0965 18.6962 22.8 17.4672 22.8 16.1485V7.85135C22.8 6.53262 22.0965 5.3036 20.9648 4.64488L13.8317 0.493059L13.9529 0.280927L13.8317 0.493056ZM10.8728 1.72646C11.5685 1.32162 12.4316 1.32167 13.1271 1.72646L13.1271 1.72646L20.2603 5.87828C20.9571 6.28382 21.3895 7.03947 21.3895 7.85135V16.1485C21.3895 16.9604 20.9571 17.716 20.2602 18.1215L13.1271 22.2734L13.0113 22.0707L13.1271 22.2734C12.4315 22.6782 11.5683 22.6782 10.8728 22.2734L10.9886 22.0707L10.8728 22.2734L3.73968 18.1216C3.04282 17.716 2.61038 16.9604 2.61038 16.1485V7.85135C2.61038 7.03946 3.04282 6.28386 3.73968 5.87828L10.8728 1.72646L10.8728 1.72646ZM11.9693 5.99999C11.1681 5.99999 10.5194 6.67401 10.5194 7.48281C10.5194 8.27233 11.149 8.96563 11.9693 8.96563C12.7897 8.96563 13.4384 8.27239 13.4384 7.48281C13.4384 6.67401 12.7706 5.99999 11.9693 5.99999Z" fill="url(#paint0_linear)"/>
<rect x="11.0403" y="10.2" width="1.92" height="8.4" rx="0.960001" fill="url(#paint1_linear)"/>
</g>
<defs>
<linearGradient id="paint0_linear" x1="12" y1="-6.10352e-05" x2="12" y2="23.9999" gradientUnits="userSpaceOnUse">
<stop stop-color="#193160"/>
<stop offset="1" stop-color="#0B1528"/>
</linearGradient>
<linearGradient id="paint1_linear" x1="12.0003" y1="10.2" x2="12.0003" y2="18.6" gradientUnits="userSpaceOnUse">
<stop stop-color="#193160"/>
<stop offset="1" stop-color="#0B1528"/>
</linearGradient>
<clipPath id="clip0">
<rect width="24" height="24" fill="white"/>
</clipPath>
</defs>
</svg>
