<svg width="94" height="10" viewBox="0 0 94 10" fill="none" xmlns="http://www.w3.org/2000/svg">
<path d="M0.856476 9.77275H3.78786V5.98933H6.5327V9.77275H9.46409V0.227295H6.5327V3.5428H3.78786V0.227295H0.856476V9.77275Z" fill="#050F23"/>
<path d="M10.9669 9.77275H13.8983V0.227295H10.9669V9.77275Z" fill="#050F23"/>
<path d="M23.5054 0.227295H20.4941L18.9617 6.01607H18.9351L17.3761 0.227295H14.4181L17.2562 9.77275H20.534L23.5054 0.227295Z" fill="#050F23"/>
<path d="M24.0442 9.77275H32.0655V7.32623H26.9756V6.13639H31.4659V3.86366H26.9756V2.67382H31.919V0.227295H24.0442V9.77275Z" fill="#050F23"/>
<path d="M33.426 9.77275H40.5679V7.32623H36.3574V0.227295H33.426V9.77275Z" fill="#050F23"/>
<path d="M41.8188 9.77275H44.7502V0.227295H41.8188V9.77275Z" fill="#050F23"/>
<path d="M53.318 9.77275H55.1701V4.51874H51.2793V6.5642H52.5718C52.5363 6.74245 52.4696 6.89842 52.3719 7.03211C52.2742 7.1658 52.1543 7.27721 52.0122 7.36633C51.87 7.44655 51.7146 7.50894 51.5458 7.5535C51.3859 7.59806 51.2216 7.62035 51.0528 7.62035C50.6087 7.62035 50.2445 7.53568 49.9602 7.36633C49.6848 7.18808 49.4672 6.97418 49.3073 6.72462C49.1563 6.47507 49.0497 6.20769 48.9875 5.92248C48.9342 5.63728 48.9076 5.38327 48.9076 5.16045C48.9076 5.0535 48.9076 4.9109 48.9076 4.73264C48.9165 4.54548 48.9342 4.3494 48.9609 4.14441C48.9964 3.93942 49.0497 3.73443 49.1208 3.52944C49.2007 3.31553 49.3117 3.12391 49.4539 2.95457C49.596 2.78523 49.7781 2.64708 50.0002 2.54013C50.2311 2.43318 50.5154 2.3797 50.8529 2.3797C51.1994 2.3797 51.5014 2.49111 51.759 2.71393C52.0255 2.93674 52.1854 3.22195 52.2387 3.56954H55.0502C54.837 2.43763 54.3573 1.55974 53.6111 0.935852C52.8649 0.311966 51.8834 2.28882e-05 50.6664 2.28882e-05C50.1334 2.28882e-05 49.5871 0.0980621 49.0275 0.29414C48.4767 0.481306 47.9749 0.77988 47.5218 1.18986C47.0688 1.59093 46.6957 2.11678 46.4026 2.7674C46.1183 3.40911 45.9762 4.18452 45.9762 5.09361C45.9762 5.77097 46.0783 6.40822 46.2826 7.00537C46.4958 7.60252 46.7979 8.12391 47.1887 8.56954C47.5884 9.00626 48.0681 9.35386 48.6278 9.61232C49.1874 9.87079 49.8181 10 50.5198 10C51.0439 10 51.5414 9.90644 52.0122 9.71928C52.4919 9.53211 52.896 9.22462 53.2247 8.79682L53.318 9.77275Z" fill="#050F23"/>
<path d="M56.6267 9.77275H59.5581V5.98933H62.3029V9.77275H65.2343V0.227295H62.3029V3.5428H59.5581V0.227295H56.6267V9.77275Z" fill="#050F23"/>
<path d="M68.9624 9.77275H71.8937V2.67382H74.5586V0.227295H66.2975V2.67382H68.9624V9.77275Z" fill="#050F23"/>
<path d="M75.6375 9.77275H83.6588V7.32623H78.5689V6.13639H83.0592V3.86366H78.5689V2.67382H83.5123V0.227295H75.6375V9.77275Z" fill="#050F23"/>
<path d="M85.0193 9.77275H87.9507V6.44387H89.5096C89.8028 6.44387 90.0293 6.49735 90.1892 6.6043C90.358 6.71125 90.4868 6.85386 90.5756 7.03211C90.6644 7.21036 90.7222 7.4109 90.7488 7.63371C90.7844 7.85653 90.811 8.07935 90.8288 8.30216C90.8465 8.55172 90.8732 8.80127 90.9087 9.05083C90.9442 9.29147 90.9976 9.53211 91.0686 9.77275H94C93.9289 9.6658 93.8756 9.5232 93.8401 9.34494C93.8046 9.15778 93.7735 8.96616 93.7468 8.77008C93.7291 8.56509 93.7157 8.36901 93.7069 8.18184C93.698 7.99468 93.6891 7.84316 93.6802 7.7273C93.6269 7.13015 93.4803 6.62213 93.2405 6.20323C93.0007 5.78434 92.6809 5.49913 92.2811 5.34762C92.521 5.25849 92.7297 5.12926 92.9074 4.95992C93.0939 4.79058 93.2449 4.59895 93.3604 4.38505C93.4759 4.17115 93.5603 3.94387 93.6136 3.70323C93.6758 3.45368 93.7069 3.20412 93.7069 2.95457C93.7069 2.50002 93.6225 2.10341 93.4537 1.76473C93.2849 1.42605 93.0584 1.1453 92.7741 0.922482C92.4899 0.690754 92.1612 0.516957 91.7881 0.401092C91.415 0.285227 91.0198 0.227295 90.6023 0.227295H85.0193V9.77275ZM87.9507 2.50002H89.3231C89.8827 2.50002 90.2647 2.58469 90.469 2.75403C90.6733 2.91446 90.7755 3.14619 90.7755 3.44922C90.7755 3.66313 90.7311 3.83247 90.6422 3.95724C90.5623 4.08202 90.4601 4.18006 90.3358 4.25136C90.2114 4.31375 90.0693 4.35386 89.9094 4.37168C89.7584 4.38951 89.6162 4.39842 89.483 4.39842H87.9507V2.50002Z" fill="#050F23"/>
</svg>
