<svg width="19" height="16" viewBox="0 0 19 16" fill="none" xmlns="http://www.w3.org/2000/svg">
<path opacity="0.23" d="M8.26718 11.8545C8.26718 9.96363 6.88931 8.21818 4.71374 7.85454C5.07634 5.67273 7.03435 3.49091 8.26718 2.61818L5.58397 0C2.46565 2.69091 0 6.47273 0 11.5636C0 14.2545 1.8855 16 4.27863 16C6.52672 16 8.26718 14.1091 8.26718 11.8545ZM19 11.8545C19 9.96363 17.6221 8.21818 15.4466 7.85454C15.8092 5.67273 17.7672 3.49091 19 2.61818L16.3168 0C13.1985 2.69091 10.7328 6.47273 10.7328 11.5636C10.7328 14.2545 12.6183 16 15.0115 16C17.2595 16 19 14.1091 19 11.8545Z" fill="#9CABC9"/>
</svg>
