<svg width="24" height="24" viewBox="0 0 24 24" fill="none" xmlns="http://www.w3.org/2000/svg">
<path d="M20.7508 18.0502C20.4733 17.3387 20.3334 16.5888 20.3334 15.822V10.2857C20.3334 6.44533 17.8483 3.22489 14.4575 2.13838C14.256 0.926939 13.2345 0 12 0C10.7656 0 9.74406 0.926939 9.54254 2.13838C6.15174 3.22489 3.6667 6.44533 3.6667 10.2857V15.822C3.6667 16.5888 3.52671 17.3387 3.24921 18.0502L2.05939 21.1105C1.95683 21.375 1.98859 21.673 2.14319 21.909C2.29863 22.1451 2.55658 22.2857 2.8333 22.2857H9.16807C9.75892 23.3186 10.8128 24 12 24C13.1873 24 14.2411 23.3186 14.832 22.2857H21.1667C21.4434 22.2857 21.7014 22.1451 21.8568 21.909C22.0114 21.673 22.0432 21.375 21.9406 21.1105C21.9407 21.1105 20.7508 18.0502 20.7508 18.0502ZM4.06378 20.5714L4.79702 18.6864C5.15267 17.7723 5.33331 16.808 5.33331 15.8219V10.2857C5.33331 6.50386 8.32402 3.42852 12 3.42852C15.676 3.42852 18.6667 6.50386 18.6667 10.2857V15.8219C18.6667 16.808 18.8473 17.7723 19.203 18.6864L19.9362 20.5714H4.06378Z" fill="url(#paint0_linear)"/>
<defs>
<linearGradient id="paint0_linear" x1="12" y1="0" x2="12" y2="24" gradientUnits="userSpaceOnUse">
<stop stop-color="#193160"/>
<stop offset="1" stop-color="#0B1528"/>
</linearGradient>
</defs>
</svg>
