<svg width="514" height="477" viewBox="0 0 514 477" fill="none" xmlns="http://www.w3.org/2000/svg">
<path d="M187.415 272.585C197.551 266.733 201.083 253.875 195.304 243.866C189.525 233.857 176.624 230.487 166.488 236.339C156.352 242.191 152.82 255.049 158.599 265.058C164.377 275.067 177.279 278.437 187.415 272.585Z" fill="#102041"/>
<mask id="mask0" mask-type="alpha" maskUnits="userSpaceOnUse" x="154" y="241" width="59" height="50">
<path d="M199.533 241.938L154.795 267.768L167.709 290.137L212.448 264.307L199.533 241.938Z" fill="white"/>
</mask>
<g mask="url(#mask0)">
<path d="M187.598 272.95C197.722 267.105 201.25 254.26 195.477 244.261C189.704 234.262 176.816 230.894 166.692 236.74C156.567 242.585 153.04 255.43 158.813 265.429C164.586 275.428 177.473 278.795 187.598 272.95Z" fill="white"/>
</g>
<path d="M308.88 328.013L283.05 283.274L238.312 309.104L264.142 353.843L308.88 328.013Z" fill="#8BAFBB"/>
<path d="M255.485 329.02C261.337 339.156 274.195 342.688 284.204 336.91C294.213 331.131 297.583 318.229 291.731 308.093C285.879 297.958 273.021 294.425 263.012 300.204C253.003 305.983 249.633 318.884 255.485 329.02Z" fill="#5C7985"/>
<mask id="mask1" mask-type="alpha" maskUnits="userSpaceOnUse" x="238" y="296" width="49" height="58">
<path d="M286.511 340.928L260.681 296.189L238.312 309.104L264.142 353.843L286.511 340.928Z" fill="white"/>
</mask>
<g mask="url(#mask1)">
<path d="M286.511 340.928L260.681 296.189L238.312 309.104L264.142 353.843L286.511 340.928Z" fill="#F5E304"/>
<path d="M255.472 329.004C261.317 339.128 274.162 342.656 284.161 336.883C294.16 331.11 297.527 318.222 291.682 308.098C285.837 297.973 272.992 294.446 262.993 300.219C252.994 305.992 249.627 318.879 255.472 329.004Z" fill="white"/>
</g>
<path d="M354.917 211.943C349.065 201.807 336.207 198.275 326.198 204.054C316.189 209.832 312.819 222.734 318.671 232.87C324.523 243.006 337.381 246.538 347.39 240.759C357.399 234.98 360.769 222.079 354.917 211.943Z" fill="#102041"/>
<mask id="mask2" mask-type="alpha" maskUnits="userSpaceOnUse" x="324" y="186" width="49" height="59">
<path d="M324.329 199.791L350.158 244.529L372.528 231.615L346.698 186.876L324.329 199.791Z" fill="white"/>
</mask>
<g mask="url(#mask2)">
<path d="M355.282 211.76C349.437 201.636 336.592 198.108 326.593 203.881C316.594 209.654 313.227 222.541 319.072 232.666C324.918 242.79 337.762 246.318 347.761 240.545C357.76 234.772 361.128 221.884 355.282 211.76Z" fill="white"/>
</g>
<path d="M167.743 290.195L212.482 264.365L238.312 309.104L193.573 334.934L167.743 290.195Z" fill="white"/>
<path d="M170.759 295.314L186.489 322.559C190.412 329.354 199.101 331.682 205.896 327.759L233.14 312.029C220.53 290.187 192.601 282.704 170.759 295.314Z" fill="#5C7985"/>
<path d="M199.236 327.19C197.291 328.314 194.804 327.647 193.681 325.702C192.558 323.756 193.224 321.269 195.169 320.146C197.115 319.023 199.602 319.689 200.725 321.635C201.848 323.58 201.182 326.067 199.236 327.19Z" fill="#FF7E6F"/>
<path d="M264.142 353.843L219.403 379.673L193.573 334.934L238.312 309.104L264.142 353.843Z" fill="#C0E1DD"/>
<path d="M221.57 331.623C228.702 327.505 237.823 329.949 241.941 337.082C246.059 344.215 243.615 353.335 236.483 357.453C229.35 361.571 220.229 359.127 216.111 351.995C211.993 344.862 214.437 335.741 221.57 331.623Z" fill="white"/>
<path d="M229.316 344.487L232.599 342.592L232.392 342.234L229.109 344.129L227.232 340.878L226.818 341.117L228.695 344.369L225.471 346.23L225.678 346.588L228.902 344.727L230.814 348.038L231.228 347.799L229.316 344.487Z" fill="#5C7985"/>
<path d="M334.71 372.752L289.971 398.582L264.142 353.843L308.88 328.013L334.71 372.752Z" fill="#5C7985"/>
<path d="M289.972 398.582L245.233 424.411L219.403 379.673L264.142 353.843L289.972 398.582Z" fill="#A3CEC1"/>
<path d="M289.776 398.529C275.55 373.889 244.043 365.446 219.403 379.672H219.403C233.629 404.313 265.136 412.755 289.776 398.529Z" fill="#FF7E6F"/>
<path d="M245.233 424.411L200.494 450.241L174.664 405.503L219.403 379.673L245.233 424.411Z" fill="#A3CEC1"/>
<path d="M204.297 448.046L241.497 426.568L228.618 404.261C222.687 393.988 209.551 390.469 199.279 396.4C189.006 402.33 185.487 415.466 191.418 425.738L204.297 448.046Z" fill="#F5E304"/>
<path d="M123.005 316.025L167.743 290.195L193.573 334.934L148.834 360.764L123.005 316.025Z" fill="#C0E1DD"/>
<path d="M148.834 360.764L135.919 338.395C128.787 326.04 133.02 310.243 145.374 303.11L167.743 290.195C182.009 314.904 173.543 346.499 148.834 360.764Z" fill="#95C3B4"/>
<path d="M398.357 276.354L443.096 250.524L468.926 295.262L424.187 321.092L398.357 276.354Z" fill="#C0E1DD"/>
<path d="M424.188 321.092L411.273 298.723C404.14 286.368 408.373 270.571 420.727 263.438L443.096 250.523C457.362 275.232 448.896 306.826 424.188 321.092Z" fill="#95C3B4"/>
<path d="M174.664 405.503L129.926 431.333L104.096 386.594L148.834 360.764L174.664 405.503Z" fill="#F5E304"/>
<path d="M237.854 309.104C223.589 284.396 232.055 252.801 256.763 238.536C271.029 263.244 262.563 294.839 237.854 309.104Z" fill="#E6E9EF"/>
<mask id="mask3" mask-type="alpha" maskUnits="userSpaceOnUse" x="327" y="231" width="72" height="72">
<path d="M398.358 276.353L353.619 302.183L327.789 257.444L372.528 231.615L398.358 276.353Z" fill="white"/>
</mask>
<g mask="url(#mask3)">
<path d="M365.83 220.157C372.144 216.511 380.217 218.675 383.862 224.988C387.507 231.302 385.344 239.375 379.03 243.02C372.717 246.665 364.644 244.502 360.998 238.189C357.353 231.875 359.516 223.802 365.83 220.157Z" fill="#5C7985"/>
<path d="M346.993 290.849C353.306 287.203 361.38 289.367 365.025 295.68C368.67 301.994 366.507 310.067 360.193 313.712C353.879 317.358 345.806 315.194 342.161 308.881C338.516 302.567 340.679 294.494 346.993 290.849Z" fill="#5C7985"/>
</g>
<path d="M123.005 316.025L78.2658 341.855L104.096 386.594L148.834 360.764L123.005 316.025Z" fill="white"/>
<path d="M110.701 323.128L78.2658 341.855C92.5313 366.564 124.126 375.029 148.834 360.764L130.108 328.328C126.185 321.534 117.496 319.205 110.701 323.128Z" fill="#FF7E6F"/>
<path d="M325.987 139.121L353.231 123.391C360.026 119.468 362.354 110.78 358.431 103.985L342.702 76.74C320.86 89.3504 313.376 117.279 325.987 139.121Z" fill="#102041"/>
<path d="M357.863 110.644C358.986 112.589 358.32 115.077 356.374 116.2C354.429 117.323 351.942 116.656 350.819 114.711C349.696 112.766 350.362 110.278 352.307 109.155C354.253 108.032 356.74 108.699 357.863 110.644Z" fill="white"/>
<path d="M324.179 170.134C328.297 177.267 325.853 186.387 318.72 190.505C311.588 194.623 302.467 192.179 298.349 185.047C294.231 177.914 296.675 168.794 303.808 164.675C310.94 160.557 320.061 163.001 324.179 170.134Z" fill="white"/>
<path d="M311.315 177.88L313.21 181.163L313.568 180.956L311.673 177.673L314.924 175.796L314.685 175.382L311.434 177.259L309.572 174.035L309.214 174.242L311.076 177.466L307.764 179.378L308.003 179.792L311.315 177.88Z" fill="#172136"/>
<path d="M257.273 238.341C281.913 224.115 290.355 192.607 276.129 167.967L276.129 167.967C251.489 182.193 243.047 213.7 257.273 238.341Z" fill="#FFE115"/>
<path d="M252.495 127.031L273.972 164.231L251.665 177.11C241.392 183.041 228.257 179.521 222.326 169.249C216.395 158.977 219.915 145.841 230.188 139.91L252.495 127.031Z" fill="#FFE115"/>
<path d="M218.44 111.714C219.563 113.66 218.897 116.147 216.951 117.27C215.006 118.393 212.519 117.727 211.395 115.781C210.272 113.836 210.939 111.349 212.884 110.226C214.829 109.103 217.317 109.769 218.44 111.714Z" fill="#FF7E6F"/>
<path d="M398.358 276.353L372.528 231.615L417.266 205.785L443.096 250.523L398.358 276.353Z" fill="#C0E1DD"/>
<path d="M411.237 239.009C412.36 240.955 411.694 243.442 409.748 244.565C407.803 245.688 405.316 245.022 404.192 243.076C403.069 241.131 403.736 238.644 405.681 237.521C407.626 236.397 410.114 237.064 411.237 239.009Z" fill="#FF7E6F"/>
<path d="M155.756 476.071L129.926 431.333L174.664 405.503L200.494 450.241L155.756 476.071Z" fill="#C0E1DD"/>
<path d="M168.635 438.727C169.758 440.673 169.091 443.16 167.146 444.283C165.201 445.406 162.713 444.74 161.59 442.794C160.467 440.849 161.134 438.362 163.079 437.239C165.024 436.115 167.512 436.782 168.635 438.727Z" fill="#FF7E6F"/>
<path d="M339.319 71.5687L316.95 84.4836C304.596 91.6164 288.799 87.3835 281.666 75.0292L268.751 52.6599C293.459 38.3945 325.054 46.8602 339.319 71.5687Z" fill="#E6E9EF"/>
<path d="M346.241 186.876C370.949 172.611 402.544 181.076 416.809 205.785C392.101 220.05 360.506 211.585 346.241 186.876Z" fill="#E6E9EF"/>
<path d="M134.535 130.15C148.8 154.858 140.334 186.453 115.626 200.718C101.361 176.01 109.826 144.415 134.535 130.15Z" fill="#E6E9EF"/>
<mask id="mask4" mask-type="alpha" maskUnits="userSpaceOnUse" x="250" y="97" width="71" height="71">
<path d="M276.129 167.967L250.299 123.228L295.038 97.3986L320.868 142.137L276.129 167.967Z" fill="white"/>
</mask>
<g mask="url(#mask4)">
<path d="M332.326 135.44C335.971 141.753 333.808 149.826 327.494 153.472C321.181 157.117 313.108 154.954 309.462 148.64C305.817 142.326 307.98 134.253 314.294 130.608C320.608 126.963 328.681 129.126 332.326 135.44Z" fill="#102041"/>
<path d="M261.634 116.602C265.279 122.916 263.116 130.989 256.802 134.634C250.489 138.279 242.415 136.116 238.77 129.803C235.125 123.489 237.288 115.416 243.602 111.77C249.915 108.125 257.989 110.289 261.634 116.602Z" fill="#102041"/>
</g>
<path d="M287.935 85.0954L269.208 52.6599C244.5 66.9253 236.034 98.52 250.299 123.228L282.735 104.502C289.53 100.579 291.858 91.8902 287.935 85.0954Z" fill="#FFE115"/>
<path d="M148.834 360.764L174.664 405.503L219.403 379.673L193.573 334.934L148.834 360.764Z" fill="white"/>
<path d="M154.006 357.839L181.251 342.109C188.045 338.186 196.734 340.514 200.657 347.309L216.387 374.554C194.545 387.165 166.616 379.681 154.006 357.839Z" fill="#5C7985"/>
<path d="M194.606 344.472C193.483 342.527 190.995 341.86 189.05 342.983C187.105 344.106 186.438 346.594 187.561 348.539C188.685 350.484 191.172 351.151 193.117 350.028C195.063 348.905 195.729 346.417 194.606 344.472Z" fill="#FF7E6F"/>
<path d="M158.779 222.866C165.912 218.748 168.355 209.628 164.237 202.495C160.119 195.362 150.999 192.918 143.866 197.036C136.733 201.155 134.29 210.275 138.408 217.408C142.526 224.541 151.646 226.984 158.779 222.866Z" fill="white"/>
<path d="M151.511 209.726L154.794 207.831L155.001 208.188L151.718 210.084L153.595 213.336L153.181 213.575L151.304 210.323L148.08 212.184L147.873 211.826L151.097 209.965L149.185 206.654L149.6 206.415L151.511 209.726Z" fill="#172136"/>
<path d="M398.358 276.353L353.619 302.183L379.449 346.922L424.188 321.092L398.358 276.353Z" fill="#C0E1DD"/>
<path d="M396.314 324.331C403.447 320.213 405.891 311.093 401.773 303.96C397.655 296.827 388.534 294.384 381.402 298.502C374.269 302.62 371.825 311.74 375.943 318.873C380.061 326.006 389.182 328.449 396.314 324.331Z" fill="white"/>
<path d="M389.047 311.191L392.33 309.295L392.537 309.653L389.254 311.549L391.131 314.8L390.717 315.04L388.84 311.788L385.616 313.649L385.409 313.291L388.633 311.43L386.721 308.119L387.135 307.88L389.047 311.191Z" fill="#5C7985"/>
<path d="M379.449 346.922L353.619 302.184L308.881 328.013L334.71 372.752L379.449 346.922Z" fill="#A3CEC1"/>
<path d="M379.254 346.87C354.613 361.096 323.106 352.653 308.88 328.013L308.88 328.013C333.52 313.787 365.028 322.229 379.254 346.87Z" fill="#FF7E6F"/>
<path d="M49.3177 179.614L86.5175 158.136L99.3968 180.444C105.328 190.716 101.808 203.852 91.5355 209.782C81.2631 215.713 68.1278 212.194 62.197 201.921L49.3177 179.614Z" fill="#FFE115"/>
<path d="M37.9966 220.59C39.9419 219.467 40.6084 216.979 39.4853 215.034C38.3621 213.089 35.8747 212.422 33.9294 213.545C31.9842 214.668 31.3177 217.156 32.4408 219.101C33.5639 221.046 36.0513 221.713 37.9966 220.59Z" fill="#FFE115"/>
<path d="M198.042 187.839C199.988 186.716 200.654 184.228 199.531 182.283C198.408 180.338 195.921 179.671 193.975 180.794C192.03 181.917 191.364 184.405 192.487 186.35C193.61 188.295 196.097 188.962 198.042 187.839Z" fill="#F5E304"/>
<path d="M123.005 316.025L97.1747 271.287L52.436 297.117L78.2659 341.855L123.005 316.025Z" fill="#C0E1DD"/>
<path d="M78.2659 341.855L100.635 328.94C112.989 321.808 117.222 306.01 110.09 293.656L97.1747 271.287C72.4662 285.552 64.0004 317.147 78.2659 341.855Z" fill="#95C3B4"/>
<path d="M186.195 219.627C200.46 244.336 232.055 252.801 256.763 238.536C242.498 213.827 210.903 205.362 186.195 219.627Z" fill="#E6E9EF"/>
<mask id="mask5" mask-type="alpha" maskUnits="userSpaceOnUse" x="97" y="245" width="71" height="72">
<path d="M141.913 245.457L97.1747 271.287L123.005 316.025L167.743 290.195L141.913 245.457Z" fill="white"/>
</mask>
<g mask="url(#mask5)">
<path d="M174.317 301.725C180.631 298.08 182.794 290.006 179.149 283.693C175.504 277.379 167.431 275.216 161.117 278.861C154.803 282.506 152.64 290.579 156.285 296.893C159.93 303.207 168.004 305.37 174.317 301.725Z" fill="#5C7985"/>
<path d="M103.677 282.692C109.991 279.047 112.154 270.974 108.509 264.66C104.864 258.347 96.7906 256.184 90.477 259.829C84.1634 263.474 82.0002 271.547 85.6453 277.861C89.2905 284.174 97.3637 286.338 103.677 282.692Z" fill="#5C7985"/>
</g>
<mask id="mask6" mask-type="alpha" maskUnits="userSpaceOnUse" x="283" y="257" width="71" height="72">
<path d="M327.789 257.444L283.05 283.274L308.88 328.013L353.619 302.183L327.789 257.444Z" fill="white"/>
</mask>
<g mask="url(#mask6)">
<path d="M360.193 313.712C366.507 310.067 368.67 301.994 365.025 295.68C361.38 289.367 353.306 287.204 346.993 290.849C340.679 294.494 338.516 302.567 342.161 308.881C345.806 315.194 353.879 317.358 360.193 313.712Z" fill="white"/>
<path d="M289.553 294.68C295.867 291.035 298.03 282.962 294.385 276.648C290.74 270.334 282.666 268.171 276.353 271.816C270.039 275.462 267.876 283.535 271.521 289.848C275.166 296.162 283.24 298.325 289.553 294.68Z" fill="white"/>
</g>
<path d="M78.448 238.851L97.1747 271.287C72.4662 285.552 40.8716 277.086 26.6061 252.378L59.0417 233.651C65.8365 229.728 74.525 232.056 78.448 238.851Z" fill="#FFE115"/>
<path d="M462.005 179.955L417.266 205.785L443.096 250.523L487.835 224.693L462.005 179.955Z" fill="#8BAFBB"/>
<path d="M462.768 232.913C472.904 227.061 476.436 214.203 470.657 204.194C464.879 194.185 451.977 190.815 441.841 196.667C431.705 202.519 428.173 215.377 433.952 225.386C439.731 235.395 452.632 238.765 462.768 232.913Z" fill="#5C7985"/>
<mask id="mask7" mask-type="alpha" maskUnits="userSpaceOnUse" x="430" y="202" width="58" height="49">
<path d="M474.886 202.266L430.148 228.096L443.063 250.465L487.801 224.635L474.886 202.266Z" fill="white"/>
</mask>
<g mask="url(#mask7)">
<path d="M474.886 202.266L430.148 228.096L443.063 250.465L487.801 224.635L474.886 202.266Z" fill="#F5E304"/>
<path d="M462.951 233.278C473.075 227.433 476.603 214.588 470.83 204.589C465.057 194.59 452.17 191.222 442.045 197.068C431.921 202.913 428.393 215.758 434.166 225.757C439.939 235.756 452.827 239.123 462.951 233.278Z" fill="white"/>
</g>
<path d="M436.175 135.216L391.437 161.046L365.607 116.307L410.345 90.4774L436.175 135.216Z" fill="#E6E9EF"/>
<path d="M393.603 112.997C400.736 108.878 409.857 111.322 413.975 118.455C418.093 125.588 415.649 134.708 408.516 138.826C401.384 142.944 392.263 140.501 388.145 133.368C384.027 126.235 386.471 117.115 393.603 112.997Z" fill="white"/>
<path d="M401.35 125.861L404.633 123.965L404.426 123.607L401.143 125.503L399.266 122.251L398.851 122.49L400.729 125.742L397.505 127.603L397.712 127.961L400.935 126.1L402.847 129.411L403.261 129.172L401.35 125.861Z" fill="#5C7985"/>
<path d="M358.228 1.00021C372.494 25.7087 364.028 57.3033 339.319 71.5688C325.054 46.8603 333.52 15.2657 358.228 1.00021Z" fill="#E6E9EF"/>
<path d="M513.665 269.432L468.926 295.262L443.096 250.523L487.835 224.693L513.665 269.432Z" fill="#5C7985"/>
<path d="M462.005 179.955L417.266 205.785L391.437 161.046L436.175 135.216L462.005 179.955Z" fill="#A3CEC1"/>
<path d="M417.267 205.785C403.001 181.076 411.467 149.482 436.175 135.216C450.441 159.925 441.975 191.519 417.267 205.785Z" fill="#C0E1DD"/>
</svg>
